<svg xmlns="http://www.w3.org/2000/svg" viewBox="0 0 512 512">
  <defs>
    <linearGradient id="bg" x1="0" y1="0" x2="0" y2="1">
      <stop offset="0%" stop-color="#16213f"/>
      <stop offset="70%" stop-color="#0d1220"/>
    </linearGradient>
  </defs>
  <rect width="512" height="512" rx="110" fill="url(#bg)"/>
  <!-- sun -->
  <circle cx="356" cy="150" r="46" fill="#e8a15c"/>
  <!-- fortress silhouette -->
  <g fill="#f4efe6">
    <path d="M96 340 L96 296 116 296 116 282 134 282 134 296 154 296 154 282 172 282 172 296 192 296 192 340 Z"/>
    <rect x="230" y="252" width="14" height="88"/>
    <circle cx="237" cy="242" r="9"/>
    <path d="M236 232 l4 -16 9 6 -9 5 z"/>
    <path d="M280 340 L280 306 300 306 300 292 318 292 318 306 338 306 338 340 Z"/>
    <path d="M380 340 a26 22 0 0 1 52 0 Z"/>
  </g>
  <!-- river -->
  <path d="M64 372 Q160 358 256 372 T448 372 L448 400 Q352 386 256 400 T64 400 Z" fill="#2e7d76"/>
  <path d="M64 414 Q160 402 256 414 T448 414 L448 434 Q352 424 256 434 T64 434 Z" fill="#2e7d76" opacity=".55"/>
  <!-- БГ monogram -->
  <text x="88" y="204" font-family="Georgia, 'Playfair Display', serif" font-weight="800" font-size="120" fill="#f4efe6">БГ</text>
</svg>
